<svg id="svg" version="1.1" xmlns="http://www.w3.org/2000/svg" xmlns:xlink="http://www.w3.org/1999/xlink" width="400" height="343.1623931623932" viewBox="0, 0, 400,343.1623931623932"><g id="svgg"><path id="path0" d="M221.974 4.562 C 206.210 10.976,197.693 39.522,205.051 61.288 C 214.162 88.239,239.686 75.312,247.081 40.000 C 251.955 16.728,238.556 -2.183,221.974 4.562 M166.009 22.093 C 150.915 27.095,151.603 52.102,167.298 68.880 C 181.223 83.767,194.335 78.921,194.335 58.887 C 194.335 37.669,179.023 17.779,166.009 22.093 M291.330 27.618 C 261.232 33.839,233.358 76.574,248.315 93.566 C 262.150 109.283,303.101 94.061,317.829 67.726 C 330.500 45.067,315.651 22.590,291.330 27.618 M135.956 60.181 C 130.836 61.927,128.264 65.684,128.296 71.371 C 128.401 89.973,161.069 102.939,161.991 84.745 C 162.654 71.661,146.629 56.542,135.956 60.181 M196.395 87.043 C 181.391 89.325,167.234 96.611,152.550 109.610 C 147.198 114.348,134.592 128.466,134.592 129.723 C 134.592 129.894,134.139 130.605,133.585 131.302 C 117.072 152.081,102.553 189.056,99.059 219.227 C 98.752 221.871,98.342 225.425,98.147 227.124 C 97.697 231.033,97.954 251.494,98.486 254.077 C 98.699 255.116,99.119 257.741,99.418 259.910 C 100.307 266.360,102.393 274.803,104.678 281.202 C 105.454 283.373,106.090 285.582,106.091 286.111 C 106.095 287.318,108.713 292.873,111.702 298.017 C 112.961 300.184,113.991 302.127,113.991 302.335 C 113.991 302.543,114.395 303.087,114.889 303.545 C 115.383 304.003,116.728 305.536,117.879 306.953 C 129.632 321.414,142.479 329.224,160.000 332.560 C 164.372 333.392,178.211 333.609,181.631 332.900 C 183.047 332.605,185.519 332.124,187.124 331.830 C 201.780 329.141,217.598 321.836,232.227 310.999 C 236.950 307.501,237.584 307.318,237.624 309.442 C 237.841 321.029,238.292 323.755,240.418 326.334 C 243.274 329.799,248.822 330.161,251.880 327.083 C 254.305 324.643,254.666 322.841,254.918 311.931 C 255.135 302.514,255.193 301.938,256.456 296.481 C 257.857 290.432,260.005 285.456,262.376 282.762 C 263.099 281.940,263.691 281.169,263.691 281.049 C 263.691 280.736,264.644 279.813,266.524 278.306 C 267.421 277.587,268.725 276.051,269.421 274.894 C 270.240 273.533,272.828 270.667,276.748 266.781 C 282.447 261.131,284.879 258.158,286.998 254.249 C 287.408 253.494,288.072 252.335,288.474 251.674 C 289.456 250.060,293.608 241.906,294.362 240.108 C 296.129 235.899,296.690 234.291,297.810 230.215 C 304.040 207.537,296.782 192.618,279.521 192.618 C 261.899 192.618,251.015 208.066,244.325 242.575 C 242.771 250.587,241.950 256.857,240.006 275.536 C 239.088 284.357,239.552 283.417,233.287 289.142 C 230.729 291.479,228.087 293.723,227.414 294.129 C 226.742 294.536,225.630 295.403,224.942 296.056 C 216.779 303.808,197.345 312.720,183.520 315.052 C 176.898 316.170,175.475 316.293,171.159 316.121 C 151.650 315.347,134.919 304.289,126.635 286.695 C 125.879 285.090,125.121 283.545,124.951 283.262 C 114.914 266.537,113.797 226.103,122.594 197.940 C 122.771 197.373,123.630 194.592,124.502 191.760 C 131.413 169.328,145.464 143.552,157.633 130.987 C 159.645 128.910,162.003 126.396,162.873 125.401 C 164.589 123.438,169.328 119.206,172.337 116.949 C 173.372 116.172,174.755 114.947,175.410 114.227 C 180.587 108.533,194.433 103.519,204.979 103.520 C 214.720 103.520,222.676 107.404,225.929 113.746 C 226.337 114.542,227.041 115.811,227.494 116.567 C 238.819 135.463,231.671 181.908,212.831 211.845 C 191.016 246.510,162.191 243.134,167.025 206.481 C 168.100 198.337,172.276 186.437,175.445 182.489 C 175.865 181.966,177.123 179.682,178.566 176.824 C 184.814 164.445,175.556 157.677,165.825 167.511 C 150.638 182.860,143.893 216.509,152.376 234.612 C 162.362 255.919,186.721 259.650,208.069 243.141 C 226.993 228.506,242.077 201.371,248.559 170.300 C 252.215 152.777,252.147 131.278,248.396 119.142 C 247.900 117.536,247.337 115.682,247.145 115.021 C 241.533 95.729,219.424 83.540,196.395 87.043 M213.470 129.709 C 206.906 132.712,201.694 144.711,204.525 150.305 C 209.001 159.153,221.662 148.482,221.580 135.931 C 221.543 130.137,218.177 127.555,213.470 129.709 M258.727 136.052 C 258.652 136.288,258.514 140.112,258.421 144.549 C 258.242 152.989,257.595 159.311,255.938 168.789 C 255.446 171.603,254.959 174.666,254.855 175.595 L 254.665 177.284 256.002 176.483 C 256.737 176.042,257.571 175.501,257.854 175.281 C 262.761 171.473,273.533 166.317,282.575 163.448 C 292.883 160.178,293.526 157.260,285.665 149.436 C 278.429 142.234,259.712 132.935,258.727 136.052 M281.544 208.240 C 287.461 211.299,286.009 225.191,278.225 239.998 C 273.684 248.636,258.729 269.528,257.087 269.528 C 255.494 269.528,260.176 239.832,263.800 226.953 C 267.773 212.831,275.225 204.972,281.544 208.240 " stroke="none" fill="#e31736" fill-rule="evenodd"></path><path id="path1" d="M17.315 80.946 C 14.201 82.061,12.304 84.078,11.694 86.924 C 11.051 89.921,11.198 321.832,11.844 324.008 C 13.724 330.339,18.891 331.664,27.642 328.059 C 31.643 326.410,35.795 324.788,38.627 323.767 C 41.075 322.884,61.970 316.142,66.266 314.848 C 68.249 314.251,70.798 313.473,71.931 313.119 C 76.491 311.694,91.158 307.896,97.511 306.494 C 99.682 306.015,103.545 305.163,106.094 304.601 C 108.644 304.039,111.397 303.473,112.213 303.343 C 114.382 302.999,114.328 302.585,111.471 297.590 C 110.041 295.092,108.248 291.695,107.486 290.043 C 106.002 286.825,106.009 286.830,103.519 287.362 C 93.049 289.602,87.647 290.871,83.605 292.040 C 80.196 293.026,76.457 294.058,71.252 295.452 C 69.367 295.956,67.590 296.489,67.303 296.635 C 66.909 296.836,63.309 297.805,61.459 298.208 C 58.174 298.923,42.799 303.772,35.738 306.319 C 31.678 307.784,29.999 308.248,29.730 307.979 C 29.118 307.367,29.032 103.041,29.643 102.807 C 29.898 102.709,31.406 103.104,32.993 103.684 C 34.581 104.265,40.213 106.120,45.509 107.808 C 53.693 110.417,57.143 111.430,65.408 113.654 C 65.974 113.806,68.369 114.494,70.730 115.182 C 80.700 118.086,98.576 122.492,105.511 123.753 C 106.870 124.000,110.996 124.750,114.678 125.419 C 118.361 126.088,124.000 127.057,127.210 127.571 C 130.421 128.085,133.194 128.640,133.373 128.802 C 134.135 129.494,134.961 128.955,136.733 126.609 C 137.767 125.240,140.949 121.571,143.804 118.455 L 148.995 112.790 145.828 112.384 C 130.835 110.463,128.898 110.144,113.820 107.102 C 104.355 105.193,99.595 104.172,90.644 102.129 C 88.472 101.634,85.459 100.947,83.948 100.603 C 74.562 98.466,57.514 93.156,42.060 87.555 C 35.516 85.184,31.193 83.605,27.476 82.231 C 22.366 80.341,19.881 80.027,17.315 80.946 M375.622 80.596 C 375.150 80.683,372.215 81.766,369.099 83.002 C 365.983 84.238,359.648 86.556,355.021 88.153 C 350.395 89.750,345.296 91.518,343.691 92.082 C 340.861 93.076,339.126 93.631,333.734 95.269 C 332.318 95.699,329.382 96.596,327.210 97.261 C 323.291 98.463,321.412 98.989,313.820 101.016 C 304.983 103.374,292.401 106.081,282.232 107.811 C 279.871 108.212,275.777 108.921,273.133 109.386 C 270.489 109.850,266.000 110.607,263.157 111.066 C 260.314 111.526,257.765 111.982,257.492 112.081 C 257.219 112.180,254.774 112.491,252.058 112.771 C 245.901 113.406,246.360 112.607,248.397 119.142 C 248.897 120.747,249.657 123.914,250.087 126.180 L 250.867 130.300 252.214 130.204 C 257.344 129.838,272.865 127.476,286.524 124.982 C 308.040 121.054,334.508 114.090,359.059 105.898 C 364.395 104.118,368.915 102.661,369.102 102.661 C 369.461 102.661,369.612 307.699,369.253 308.057 C 369.002 308.308,366.473 307.727,365.165 307.117 C 362.576 305.912,351.143 302.216,346.094 300.953 C 344.300 300.504,341.442 299.649,339.742 299.054 C 336.234 297.825,332.230 296.631,327.725 295.471 C 326.026 295.033,323.167 294.182,321.373 293.579 C 319.579 292.977,316.798 292.201,315.193 291.856 C 313.588 291.511,310.498 290.813,308.326 290.304 C 294.463 287.058,284.007 285.019,271.416 283.106 C 268.395 282.647,265.391 282.082,264.741 281.852 C 262.204 280.951,257.643 289.282,256.324 297.228 L 256.085 298.663 257.742 298.868 C 258.654 298.981,260.172 299.217,261.116 299.392 C 262.060 299.567,264.455 299.955,266.438 300.254 C 269.650 300.738,279.601 302.624,286.695 304.093 C 288.112 304.386,290.970 304.976,293.047 305.404 C 299.385 306.711,303.559 307.617,306.438 308.312 C 307.948 308.677,310.884 309.377,312.961 309.868 C 319.084 311.315,323.466 312.433,325.665 313.109 C 326.798 313.458,329.348 314.239,331.330 314.844 C 338.504 317.036,346.369 319.614,350.215 321.033 C 351.820 321.626,354.215 322.474,355.536 322.919 C 360.330 324.532,366.612 326.828,370.644 328.441 C 374.540 330.000,374.943 330.091,378.071 330.109 L 381.379 330.129 383.393 328.569 C 384.625 327.616,385.772 326.348,386.344 325.307 L 387.280 323.605 387.288 205.641 C 387.297 73.620,387.555 85.926,384.720 83.009 C 382.501 80.726,379.384 79.899,375.622 80.596 M225.222 115.147 C 224.396 115.953,203.025 116.464,187.697 116.044 L 174.021 115.668 172.238 117.015 C 169.421 119.141,164.776 123.277,163.099 125.152 C 162.255 126.095,160.633 127.868,159.494 129.091 L 157.425 131.315 160.000 131.720 C 165.669 132.610,185.512 133.557,199.068 133.585 L 208.437 133.604 210.227 131.987 C 214.351 128.263,219.088 128.131,220.961 131.688 L 221.631 132.962 226.301 132.756 C 232.330 132.490,232.213 132.540,231.925 130.340 C 230.938 122.794,226.858 113.547,225.222 115.147 M185.236 277.257 C 185.047 277.323,181.030 277.551,176.309 277.764 C 164.219 278.309,146.908 280.054,133.468 282.082 C 129.167 282.731,125.575 283.262,125.485 283.262 C 124.158 283.262,129.144 291.962,133.301 296.898 C 135.686 299.730,136.160 300.030,137.293 299.424 C 137.620 299.249,140.816 298.780,144.394 298.383 C 147.973 297.986,151.674 297.507,152.618 297.320 C 153.562 297.133,158.120 296.666,162.747 296.282 C 167.373 295.899,173.245 295.404,175.794 295.182 C 181.186 294.712,217.479 294.691,222.318 295.155 L 225.408 295.451 227.110 294.339 C 229.397 292.846,237.774 285.164,238.581 283.820 C 239.278 282.658,239.804 279.273,239.332 278.982 C 238.963 278.754,227.567 277.923,218.197 277.441 C 211.682 277.106,186.071 276.963,185.236 277.257 " stroke="none" fill="#363535" fill-rule="evenodd"></path><path id="path2" d="M0.000 171.674 L 0.000 343.348 200.000 343.348 L 400.000 343.348 400.000 171.674 L 400.000 0.000 200.000 0.000 L 0.000 0.000 0.000 171.674 M232.142 3.435 C 253.158 7.358,253.995 48.430,233.478 69.031 C 217.579 84.995,202.232 72.980,202.232 44.570 C 202.232 18.225,215.275 0.287,232.142 3.435 M176.700 22.982 C 192.551 30.801,200.892 63.013,190.107 74.761 C 178.941 86.925,154.727 62.927,154.686 39.657 C 154.661 25.371,165.264 17.340,176.700 22.982 M305.579 27.344 C 319.254 30.805,326.190 45.696,321.220 60.923 C 310.842 92.714,257.842 113.679,245.896 90.717 C 241.898 83.032,243.934 69.881,250.843 58.774 C 254.937 52.193,263.389 42.387,267.639 39.288 C 268.395 38.738,269.090 38.209,269.185 38.113 C 277.092 30.075,295.201 24.717,305.579 27.344 M143.691 59.805 C 147.028 60.642,153.103 64.825,155.604 68.007 C 156.113 68.655,157.016 69.803,157.610 70.558 C 162.322 76.541,163.937 86.111,160.928 90.208 C 154.825 98.515,136.039 91.772,129.625 78.970 C 123.797 67.341,131.561 56.762,143.691 59.805 M24.549 80.662 C 25.494 81.013,27.502 81.763,29.013 82.327 C 49.501 89.979,70.896 96.945,82.403 99.710 C 105.271 105.204,126.530 109.394,140.882 111.235 C 148.977 112.273,148.936 112.277,151.311 110.119 C 164.729 97.924,178.046 90.526,192.326 87.332 C 197.158 86.251,210.972 85.892,214.249 86.762 C 215.099 86.988,216.953 87.437,218.369 87.762 C 229.736 90.363,240.177 98.938,245.404 109.965 L 246.695 112.689 249.785 112.490 C 252.769 112.298,269.291 109.672,278.112 107.988 C 280.472 107.537,283.562 106.990,284.979 106.772 C 296.872 104.939,314.420 100.691,330.644 95.718 C 339.309 93.062,359.620 86.236,363.090 84.813 C 363.657 84.581,364.893 84.116,365.837 83.781 C 366.781 83.445,369.162 82.518,371.129 81.720 C 378.523 78.722,383.237 79.565,386.479 84.464 L 387.468 85.958 387.561 204.610 C 387.647 313.501,387.609 323.383,387.096 324.741 C 384.899 330.557,378.730 332.147,370.815 328.935 C 368.833 328.130,366.438 327.200,365.494 326.868 C 364.549 326.537,362.386 325.771,360.687 325.167 C 358.987 324.563,356.979 323.860,356.223 323.605 C 355.468 323.350,353.305 322.584,351.416 321.903 C 346.960 320.295,337.966 317.296,333.391 315.893 C 331.408 315.285,328.858 314.498,327.725 314.144 C 323.872 312.939,316.715 311.102,309.528 309.474 C 307.451 309.003,304.052 308.232,301.974 307.760 C 292.197 305.539,273.927 301.895,266.953 300.775 C 264.687 300.411,262.000 299.953,260.983 299.756 C 255.513 298.700,255.848 297.992,255.464 311.416 C 255.025 326.819,253.889 329.099,246.656 329.099 C 239.701 329.099,237.654 325.875,237.332 314.421 C 237.238 311.069,237.051 308.326,236.917 308.326 C 236.784 308.326,235.552 309.137,234.180 310.129 C 228.146 314.488,225.824 316.052,221.631 318.575 C 209.904 325.631,198.540 330.063,186.266 332.367 C 184.378 332.721,182.137 333.167,181.288 333.358 C 179.325 333.798,165.143 333.812,163.090 333.376 C 162.240 333.195,160.155 332.823,158.455 332.548 C 143.580 330.144,129.627 321.680,118.345 308.219 C 113.932 302.954,114.822 303.350,109.650 304.344 C 102.250 305.766,92.558 307.959,86.867 309.499 C 85.073 309.984,82.601 310.629,81.373 310.931 C 78.756 311.575,72.527 313.341,70.558 313.997 C 69.803 314.249,67.253 315.027,64.893 315.726 C 54.227 318.885,35.273 325.279,30.386 327.367 C 19.391 332.063,15.635 331.716,11.987 325.665 L 11.159 324.292 11.159 205.322 L 11.159 86.352 12.157 84.551 C 14.322 80.642,19.844 78.910,24.549 80.662 M366.009 104.033 C 358.995 106.493,346.387 110.641,343.691 111.376 C 342.652 111.659,340.489 112.293,338.884 112.784 C 335.502 113.820,329.471 115.508,326.009 116.387 C 324.687 116.723,321.523 117.563,318.978 118.255 C 316.433 118.947,312.957 119.829,311.253 120.215 C 309.549 120.601,306.532 121.288,304.549 121.743 C 296.099 123.680,284.138 126.070,277.940 127.059 C 275.485 127.450,271.082 128.151,268.155 128.617 C 263.134 129.415,257.455 130.177,252.927 130.659 L 250.918 130.874 251.145 131.960 C 251.624 134.257,251.752 148.590,251.342 154.163 C 250.249 169.038,245.991 185.647,239.150 201.717 C 228.179 227.488,208.594 247.923,190.215 252.777 C 171.919 257.609,155.204 247.600,149.667 228.498 L 148.572 224.721 148.563 214.936 C 148.554 205.570,148.594 204.959,149.494 200.687 C 154.991 174.574,170.342 155.880,179.216 164.492 C 182.451 167.632,181.827 172.396,177.118 180.520 C 169.287 194.025,167.415 200.388,167.395 213.562 C 167.375 226.277,169.871 231.699,177.049 234.541 C 200.244 243.723,233.244 188.805,232.363 142.489 C 232.179 132.828,232.156 132.718,230.421 133.011 C 229.741 133.126,227.620 133.319,225.709 133.441 L 222.233 133.661 222.060 136.959 C 221.392 149.662,208.859 159.375,204.194 150.805 C 202.345 147.406,202.755 143.620,205.586 137.963 C 206.467 136.204,207.244 134.648,207.314 134.506 C 207.383 134.365,204.298 134.251,200.458 134.254 C 189.895 134.261,174.878 133.636,165.608 132.803 C 156.116 131.951,157.223 131.695,154.188 135.439 C 147.200 144.057,138.327 158.783,133.390 169.957 C 132.681 171.562,131.825 173.494,131.489 174.249 C 116.343 208.287,112.749 246.984,122.104 275.301 C 124.687 283.121,124.621 283.060,129.614 282.245 C 138.700 280.762,147.673 279.568,152.961 279.137 C 155.416 278.936,159.433 278.538,161.888 278.251 C 177.070 276.476,214.563 276.302,233.648 277.917 C 239.717 278.430,239.339 278.637,239.694 274.612 C 244.864 216.064,258.091 190.078,281.694 192.100 C 302.049 193.843,306.510 217.629,291.869 246.352 C 286.496 256.892,282.627 262.148,275.241 268.937 C 273.114 270.893,271.303 272.952,270.088 274.796 C 268.854 276.670,267.561 278.134,266.297 279.089 C 263.277 281.369,263.436 281.473,271.849 282.738 C 284.244 284.602,291.150 285.948,307.296 289.648 C 309.279 290.102,312.369 290.792,314.163 291.180 C 315.957 291.569,319.356 292.483,321.717 293.211 C 324.077 293.940,328.249 295.158,330.987 295.919 C 333.725 296.680,337.820 297.917,340.086 298.668 C 342.352 299.420,345.983 300.509,348.155 301.090 C 351.723 302.044,358.887 304.381,365.613 306.785 C 367.001 307.281,368.353 307.604,368.618 307.502 C 369.148 307.299,369.371 103.525,368.841 103.259 C 368.700 103.188,367.425 103.537,366.009 104.033 M29.697 104.120 C 29.393 105.372,29.673 307.212,29.979 307.518 C 30.133 307.672,31.446 307.371,32.897 306.850 C 42.033 303.571,52.913 300.077,59.399 298.339 C 61.382 297.807,64.395 296.975,66.094 296.490 C 85.427 290.969,95.186 288.503,104.468 286.791 C 105.907 286.526,105.901 286.456,103.897 280.277 C 101.396 272.560,100.134 267.403,99.086 260.601 C 97.526 250.484,97.367 248.397,97.408 238.627 C 97.563 201.970,110.302 163.016,132.097 132.554 C 134.399 129.337,134.315 129.226,128.866 128.346 C 112.880 125.762,104.537 124.227,97.511 122.577 C 90.601 120.954,77.262 117.629,75.366 117.057 C 72.848 116.297,60.939 112.944,57.167 111.932 C 53.828 111.036,39.748 106.565,34.398 104.701 C 29.843 103.114,29.938 103.126,29.697 104.120 M200.687 104.016 C 196.559 104.308,192.131 105.532,187.129 107.765 C 182.328 109.907,174.945 114.371,175.488 114.802 C 176.553 115.647,205.967 116.034,216.824 115.346 C 226.950 114.705,226.595 114.892,223.777 111.687 C 218.167 105.309,211.893 103.224,200.687 104.016 M265.236 136.474 C 278.641 140.934,292.488 152.749,291.359 158.766 C 290.950 160.945,289.934 161.507,281.030 164.478 C 273.492 166.993,265.861 170.666,259.468 174.856 C 254.897 177.851,253.901 178.141,254.182 176.395 C 254.430 174.852,256.018 165.429,256.454 162.918 C 257.228 158.453,257.949 149.516,258.100 142.531 L 258.258 135.190 260.373 135.375 C 261.537 135.477,263.725 135.972,265.236 136.474 M275.894 208.639 C 271.344 210.035,266.706 217.803,263.725 229.018 C 260.512 241.110,256.156 268.498,257.446 268.498 C 258.346 268.498,269.584 253.505,274.046 246.352 C 287.609 224.611,288.582 204.746,275.894 208.639 M181.974 295.311 C 169.197 296.018,156.535 297.199,143.712 298.882 C 135.857 299.912,135.867 299.905,138.556 302.430 C 156.505 319.283,184.198 319.949,212.019 304.195 C 217.894 300.867,224.617 296.267,224.206 295.855 C 223.531 295.179,191.767 294.770,181.974 295.311 " stroke="none" fill="#fbfbfb" fill-rule="evenodd"></path><path id="path3" d="M226.867 3.342 C 227.670 3.414,228.983 3.414,229.785 3.342 C 230.588 3.269,229.931 3.210,228.326 3.210 C 226.721 3.210,226.064 3.269,226.867 3.342 M222.833 3.756 C 204.718 9.317,195.669 45.337,206.930 67.061 C 217.461 87.377,241.121 71.793,247.530 40.318 C 251.148 22.548,244.282 5.438,232.790 3.588 C 231.934 3.451,232.154 3.598,233.551 4.101 C 249.411 9.808,252.873 33.978,241.185 57.403 C 226.429 86.974,202.575 79.013,202.575 44.516 C 202.575 25.089,210.220 9.344,221.974 4.562 C 224.481 3.543,224.944 3.108,222.833 3.756 M165.665 21.750 C 151.426 26.462,150.782 47.978,164.339 66.042 C 178.103 84.381,195.016 80.702,195.021 59.368 C 195.025 37.584,179.180 17.278,165.665 21.750 M175.107 22.666 C 195.231 31.298,202.168 75.830,183.650 77.509 C 171.110 78.646,155.123 57.556,155.086 39.828 C 155.059 26.644,164.838 18.261,175.107 22.666 M294.592 26.780 C 286.836 27.512,273.966 33.253,269.185 38.113 C 269.090 38.209,268.395 38.738,267.639 39.288 C 261.523 43.747,251.721 56.146,248.037 64.083 C 234.066 94.186,256.263 110.331,289.270 94.074 C 313.054 82.360,326.856 61.011,321.853 43.675 C 318.375 31.627,308.444 25.472,294.592 26.780 M304.400 27.489 C 314.513 29.301,322.482 39.570,322.501 50.815 C 322.535 70.148,301.861 91.617,276.738 98.340 C 243.032 107.359,232.928 79.074,258.948 48.539 C 272.254 32.924,289.683 24.853,304.400 27.489 M134.295 60.305 C 127.794 63.360,125.798 71.334,129.625 78.970 C 136.039 91.772,154.825 98.515,160.928 90.208 C 163.937 86.111,162.322 76.541,157.610 70.558 C 157.016 69.803,156.113 68.655,155.604 68.007 C 152.677 64.282,145.806 59.915,142.318 59.562 C 140.757 59.404,140.854 59.463,143.373 60.201 C 155.312 63.701,165.585 80.490,161.095 89.165 C 157.488 96.133,144.699 94.437,135.422 85.759 C 125.552 76.526,125.821 63.636,135.956 60.181 C 137.621 59.613,137.932 59.420,137.167 59.428 C 136.601 59.435,135.308 59.829,134.295 60.305 M197.597 86.393 C 181.396 88.749,166.334 96.468,151.330 110.101 C 149.560 111.710,149.169 111.909,147.553 112.022 L 145.751 112.148 147.652 112.211 L 149.553 112.275 152.459 109.675 C 172.309 91.913,193.753 84.014,213.906 87.040 C 215.030 87.209,215.052 87.195,214.249 86.823 C 213.397 86.428,199.772 86.076,197.597 86.393 M215.308 87.343 C 215.386 87.417,216.777 87.807,218.398 88.210 C 229.869 91.063,240.534 99.946,245.216 110.548 L 246.283 112.961 247.691 112.904 C 249.065 112.847,249.070 112.843,247.897 112.716 C 246.773 112.594,246.611 112.412,245.404 109.913 C 240.129 98.998,230.347 90.860,218.884 87.853 C 216.658 87.269,214.969 87.028,215.308 87.343 M49.785 89.899 C 50.069 90.074,50.687 90.321,51.159 90.447 C 51.755 90.607,51.860 90.580,51.502 90.358 C 51.219 90.183,50.601 89.937,50.129 89.811 C 49.532 89.651,49.427 89.678,49.785 89.899 M54.592 91.616 C 54.876 91.791,55.494 92.037,55.966 92.164 C 56.562 92.323,56.667 92.296,56.309 92.075 C 56.026 91.900,55.408 91.654,54.936 91.527 C 54.339 91.368,54.234 91.395,54.592 91.616 M29.533 103.605 C 29.537 104.073,29.604 104.103,29.834 103.740 C 30.024 103.439,30.418 103.356,30.944 103.505 C 31.573 103.683,31.642 103.653,31.245 103.375 C 30.440 102.812,29.527 102.934,29.533 103.605 M366.867 103.531 C 366.008 103.945,365.980 103.993,366.695 103.818 C 367.668 103.580,368.762 103.023,368.240 103.030 C 368.052 103.033,367.433 103.259,366.867 103.531 M199.657 103.558 C 191.864 104.692,180.026 109.763,175.880 113.742 C 174.319 115.240,174.437 115.373,177.253 115.299 L 179.742 115.232 177.597 115.111 C 174.580 114.939,174.788 114.645,180.258 111.344 C 194.181 102.941,209.940 101.326,218.910 107.382 C 223.379 110.399,226.596 114.435,224.807 114.779 C 224.248 114.887,224.343 114.941,225.150 114.975 C 229.614 115.162,219.690 106.203,213.219 104.204 C 211.365 103.631,202.162 103.193,199.657 103.558 M101.631 104.378 C 102.103 104.529,102.798 104.653,103.176 104.653 C 103.720 104.653,103.684 104.595,103.004 104.378 C 102.532 104.226,101.837 104.103,101.459 104.103 C 100.915 104.103,100.951 104.160,101.631 104.378 M286.270 106.681 C 286.697 106.763,287.315 106.760,287.643 106.674 C 287.972 106.588,287.622 106.521,286.867 106.524 C 286.112 106.528,285.843 106.598,286.270 106.681 M269.356 109.528 C 268.431 109.763,268.414 109.791,269.185 109.796 C 269.657 109.800,270.429 109.679,270.901 109.528 C 272.055 109.158,270.809 109.158,269.356 109.528 M345.579 110.558 C 345.147 110.744,345.083 110.853,345.408 110.853 C 345.691 110.853,346.232 110.720,346.609 110.558 C 347.042 110.372,347.106 110.263,346.781 110.263 C 346.498 110.263,345.957 110.396,345.579 110.558 M143.605 111.825 C 143.936 111.911,144.476 111.911,144.807 111.825 C 145.137 111.738,144.867 111.668,144.206 111.668 C 143.545 111.668,143.275 111.738,143.605 111.825 M333.906 113.991 C 333.473 114.177,333.409 114.286,333.734 114.286 C 334.017 114.286,334.558 114.154,334.936 113.991 C 335.368 113.805,335.432 113.696,335.107 113.696 C 334.824 113.696,334.283 113.829,333.906 113.991 M219.313 115.273 C 220.116 115.345,221.429 115.345,222.232 115.273 C 223.034 115.201,222.378 115.141,220.773 115.141 C 219.167 115.141,218.511 115.201,219.313 115.273 M181.549 115.608 C 181.976 115.690,182.594 115.687,182.922 115.601 C 183.251 115.515,182.901 115.448,182.146 115.451 C 181.391 115.455,181.122 115.526,181.549 115.608 M214.163 115.607 C 214.588 115.689,215.283 115.689,215.708 115.607 C 216.133 115.525,215.785 115.458,214.936 115.458 C 214.086 115.458,213.738 115.525,214.163 115.607 M327.725 115.708 C 327.292 115.894,327.229 116.003,327.554 116.003 C 327.837 116.003,328.378 115.870,328.755 115.708 C 329.188 115.522,329.252 115.413,328.927 115.413 C 328.644 115.413,328.103 115.546,327.725 115.708 M198.039 115.963 C 199.227 116.030,201.081 116.029,202.159 115.961 C 203.238 115.894,202.266 115.839,200.000 115.839 C 197.734 115.840,196.852 115.895,198.039 115.963 M133.476 129.507 C 133.833 129.940,133.602 130.451,132.088 132.567 C 110.303 163.016,97.563 201.977,97.408 238.627 C 97.367 248.397,97.526 250.484,99.086 260.601 C 100.135 267.410,101.396 272.560,103.907 280.308 C 105.834 286.251,105.853 286.516,104.378 286.805 C 103.809 286.916,103.925 286.955,104.721 286.920 C 106.418 286.845,106.416 286.107,104.705 281.293 C 102.381 274.753,100.309 266.371,99.418 259.910 C 99.119 257.741,98.699 255.116,98.486 254.077 C 97.954 251.494,97.697 231.033,98.147 227.124 C 98.342 225.425,98.752 221.871,99.059 219.227 C 102.533 189.228,116.189 154.182,133.020 132.072 C 134.671 129.904,134.684 129.859,133.829 129.403 C 133.145 129.038,133.101 129.051,133.476 129.507 M260.343 129.679 C 260.674 129.765,261.215 129.765,261.545 129.679 C 261.876 129.592,261.605 129.522,260.944 129.522 C 260.283 129.522,260.013 129.592,260.343 129.679 M257.940 130.022 C 258.270 130.108,258.811 130.108,259.142 130.022 C 259.472 129.936,259.202 129.865,258.541 129.865 C 257.880 129.865,257.609 129.936,257.940 130.022 M250.912 133.047 C 256.289 185.350,221.342 249.431,185.440 253.098 C 157.326 255.970,142.301 230.516,151.262 195.193 C 155.217 179.602,165.578 164.158,172.901 162.940 C 178.135 162.069,181.534 166.066,180.379 171.733 C 179.861 174.271,176.954 180.610,175.445 182.489 C 173.772 184.573,169.415 194.849,168.275 199.400 C 160.851 229.037,175.923 245.115,197.073 230.121 C 213.060 218.788,229.162 184.442,232.443 154.678 C 233.164 148.140,232.729 132.908,231.812 132.605 C 231.429 132.479,231.425 132.592,231.793 133.265 C 232.760 135.036,232.645 150.026,231.608 157.425 C 225.265 202.664,197.097 242.478,177.049 234.541 C 169.871 231.699,167.375 226.277,167.395 213.562 C 167.415 200.388,169.287 194.025,177.118 180.520 C 181.827 172.396,182.451 167.632,179.216 164.492 C 173.298 158.749,163.935 165.178,156.460 180.117 C 150.578 191.872,148.550 200.813,148.563 214.936 L 148.572 224.721 149.667 228.498 C 156.214 251.085,176.951 259.965,198.798 249.536 C 213.605 242.468,230.147 222.864,239.150 201.717 C 245.991 185.647,250.249 169.038,251.342 154.163 C 251.808 147.821,251.611 133.764,251.029 131.845 C 250.733 130.870,250.711 131.096,250.912 133.047 M155.295 133.369 C 144.470 145.409,130.790 171.350,124.502 191.760 C 123.630 194.592,122.771 197.373,122.594 197.940 C 114.774 222.976,114.503 254.344,121.919 276.197 C 124.071 282.537,124.555 283.330,126.009 282.899 L 126.867 282.644 125.930 282.609 C 124.730 282.566,124.116 281.393,122.104 275.301 C 112.749 246.984,116.343 208.287,131.489 174.249 C 131.825 173.494,132.681 171.562,133.390 169.957 C 140.296 154.327,154.473 132.672,158.126 132.176 L 159.485 131.991 158.170 131.812 C 156.938 131.645,156.757 131.743,155.295 133.369 M168.159 133.118 C 168.586 133.200,169.204 133.197,169.532 133.111 C 169.860 133.026,169.511 132.958,168.755 132.962 C 168.000 132.966,167.731 133.036,168.159 133.118 M228.244 133.118 C 228.671 133.200,229.289 133.197,229.618 133.111 C 229.946 133.026,229.597 132.958,228.841 132.962 C 228.086 132.966,227.817 133.036,228.244 133.118 M173.147 133.474 C 174.430 133.540,176.438 133.540,177.611 133.473 C 178.783 133.406,177.734 133.352,175.279 133.352 C 172.824 133.353,171.865 133.408,173.147 133.474 M221.771 133.305 C 221.753 133.352,221.689 134.781,221.629 136.481 C 221.185 148.973,208.801 158.961,204.488 150.306 C 202.908 147.136,203.450 143.212,206.220 137.760 C 207.421 135.397,207.886 134.157,207.612 134.052 C 207.385 133.965,203.108 133.938,198.106 133.992 L 189.013 134.089 198.226 134.169 C 203.293 134.213,207.383 134.365,207.314 134.506 C 207.244 134.648,206.467 136.204,205.586 137.963 C 202.755 143.620,202.345 147.406,204.194 150.805 C 208.867 159.390,221.393 149.659,222.061 136.924 L 222.236 133.590 224.680 133.473 L 227.124 133.355 224.464 133.287 C 223.000 133.250,221.788 133.258,221.771 133.305 M182.232 133.814 C 183.034 133.886,184.348 133.886,185.150 133.814 C 185.953 133.741,185.296 133.682,183.691 133.682 C 182.086 133.682,181.429 133.741,182.232 133.814 M258.100 142.531 C 257.949 149.516,257.228 158.453,256.454 162.918 C 256.018 165.429,254.430 174.852,254.182 176.395 C 253.901 178.141,254.897 177.851,259.468 174.856 C 265.861 170.666,273.492 166.993,281.030 164.478 C 289.934 161.507,290.950 160.945,291.359 158.766 C 292.683 151.709,272.448 136.433,260.373 135.375 L 258.258 135.190 258.100 142.531 M263.560 136.502 C 276.461 140.241,290.815 151.541,290.815 157.958 C 290.815 160.487,289.822 161.149,282.575 163.448 C 272.771 166.558,266.416 169.647,256.682 176.032 C 254.518 177.451,254.401 177.335,254.982 174.339 C 257.208 162.839,258.226 153.961,258.445 144.120 L 258.635 135.622 259.580 135.622 C 260.099 135.622,261.890 136.018,263.560 136.502 M275.536 192.286 C 261.876 194.386,252.528 207.012,246.183 231.931 C 243.515 242.410,240.789 260.298,239.800 273.820 C 239.690 275.330,239.462 277.003,239.294 277.536 C 239.067 278.255,239.097 278.470,239.408 278.368 C 239.663 278.284,239.910 277.224,240.036 275.681 C 240.241 273.149,241.004 265.813,241.711 259.571 C 246.741 215.138,259.459 192.618,279.521 192.618 C 296.782 192.618,304.040 207.537,297.810 230.215 C 296.690 234.291,296.129 235.899,294.362 240.108 C 293.608 241.906,289.456 250.060,288.474 251.674 C 288.072 252.335,287.408 253.494,286.998 254.249 C 284.879 258.158,282.447 261.131,276.748 266.781 C 272.828 270.667,270.240 273.533,269.421 274.894 C 268.725 276.051,267.421 277.587,266.524 278.306 C 264.250 280.129,263.623 280.814,263.865 281.206 C 264.188 281.728,264.723 281.607,264.513 281.060 C 264.395 280.752,265.037 280.039,266.271 279.108 C 267.562 278.133,268.845 276.684,270.088 274.796 C 271.303 272.952,273.114 270.893,275.241 268.937 C 292.686 252.901,303.835 224.473,299.517 207.039 C 296.916 196.538,287.112 190.506,275.536 192.286 M274.746 208.614 C 268.544 211.705,263.656 223.345,260.052 243.605 C 257.676 256.962,256.239 269.528,257.087 269.528 C 258.729 269.528,273.684 248.636,278.225 239.998 C 288.721 220.031,286.790 202.612,274.746 208.614 M280.586 208.426 C 287.178 210.257,285.805 225.062,277.643 240.172 C 274.282 246.393,270.608 251.864,263.232 261.631 C 256.371 270.715,256.628 270.801,258.011 259.879 C 262.709 222.784,270.266 205.560,280.586 208.426 M169.528 277.667 C 169.953 277.749,170.648 277.749,171.073 277.667 C 171.498 277.585,171.150 277.518,170.300 277.518 C 169.451 277.518,169.103 277.585,169.528 277.667 M228.588 277.668 C 229.015 277.750,229.633 277.747,229.961 277.661 C 230.289 277.575,229.940 277.508,229.185 277.511 C 228.429 277.515,228.161 277.586,228.588 277.668 M165.584 278.015 C 166.106 278.094,166.879 278.091,167.301 278.010 C 167.723 277.928,167.296 277.864,166.352 277.866 C 165.408 277.869,165.062 277.936,165.584 278.015 M232.194 278.015 C 232.715 278.094,233.488 278.091,233.910 278.010 C 234.333 277.928,233.906 277.864,232.961 277.866 C 232.017 277.869,231.672 277.936,232.194 278.015 M162.322 278.354 C 162.749 278.437,163.367 278.433,163.695 278.347 C 164.023 278.262,163.674 278.194,162.918 278.198 C 162.163 278.202,161.895 278.272,162.322 278.354 M236.485 278.354 C 236.912 278.437,237.530 278.433,237.858 278.347 C 238.186 278.262,237.837 278.194,237.082 278.198 C 236.326 278.202,236.058 278.272,236.485 278.354 M151.159 279.378 C 151.489 279.465,152.030 279.465,152.361 279.378 C 152.691 279.292,152.421 279.221,151.760 279.221 C 151.099 279.221,150.828 279.292,151.159 279.378 M147.897 279.727 C 148.322 279.809,149.017 279.809,149.442 279.727 C 149.867 279.645,149.519 279.578,148.670 279.578 C 147.820 279.578,147.472 279.645,147.897 279.727 M145.322 280.065 C 145.652 280.151,146.193 280.151,146.524 280.065 C 146.854 279.979,146.584 279.908,145.923 279.908 C 145.262 279.908,144.991 279.979,145.322 280.065 M275.451 283.498 C 275.781 283.585,276.322 283.585,276.652 283.498 C 276.983 283.412,276.712 283.341,276.052 283.341 C 275.391 283.341,275.120 283.412,275.451 283.498 M88.927 290.129 C 88.220 290.355,88.190 290.409,88.755 290.433 C 89.133 290.449,89.674 290.312,89.957 290.129 C 90.559 289.740,90.141 289.740,88.927 290.129 M196.120 294.848 C 197.763 294.910,200.544 294.911,202.300 294.848 C 204.057 294.786,202.712 294.734,199.313 294.734 C 195.914 294.734,194.477 294.785,196.120 294.848 M184.635 295.178 C 185.060 295.260,185.755 295.260,186.180 295.178 C 186.605 295.096,186.258 295.029,185.408 295.029 C 184.558 295.029,184.210 295.096,184.635 295.178 M208.841 295.188 C 209.738 295.259,211.206 295.259,212.103 295.188 C 213.000 295.117,212.266 295.059,210.472 295.059 C 208.678 295.059,207.944 295.117,208.841 295.188 M178.455 295.521 C 178.880 295.603,179.575 295.603,180.000 295.521 C 180.425 295.439,180.077 295.372,179.227 295.372 C 178.378 295.372,178.030 295.439,178.455 295.521 M218.803 295.525 C 219.325 295.604,220.097 295.602,220.520 295.521 C 220.942 295.439,220.515 295.375,219.571 295.377 C 218.627 295.380,218.281 295.446,218.803 295.525 M223.417 296.672 C 219.309 300.783,204.794 308.504,195.021 311.776 C 192.283 312.693,190.276 313.450,190.561 313.460 C 191.169 313.479,197.246 311.534,200.673 310.222 C 207.511 307.605,223.720 298.142,225.050 295.989 C 225.504 295.254,224.352 295.736,223.417 296.672 M167.468 296.214 C 168.082 296.290,169.086 296.290,169.700 296.214 C 170.313 296.138,169.811 296.076,168.584 296.076 C 167.356 296.076,166.854 296.138,167.468 296.214 M163.352 296.552 C 163.779 296.634,164.397 296.631,164.725 296.545 C 165.053 296.459,164.704 296.392,163.948 296.396 C 163.193 296.399,162.925 296.470,163.352 296.552 M160.429 296.889 C 160.760 296.975,161.300 296.975,161.631 296.889 C 161.961 296.803,161.691 296.732,161.030 296.732 C 160.369 296.732,160.099 296.803,160.429 296.889 M156.996 297.232 C 157.326 297.319,157.867 297.319,158.197 297.232 C 158.528 297.146,158.258 297.075,157.597 297.075 C 156.936 297.075,156.665 297.146,156.996 297.232 M147.382 298.262 C 147.712 298.349,148.253 298.349,148.584 298.262 C 148.914 298.176,148.644 298.105,147.983 298.105 C 147.322 298.105,147.052 298.176,147.382 298.262 M255.652 299.618 C 255.275 300.601,254.774 309.664,254.769 315.607 C 254.762 324.093,253.239 327.606,249.049 328.805 L 247.382 329.282 248.927 329.087 C 253.907 328.459,255.067 325.323,255.464 311.416 C 255.784 300.212,255.871 299.504,256.946 299.293 C 257.558 299.174,257.529 299.141,256.775 299.103 C 256.219 299.074,255.784 299.274,255.652 299.618 M135.966 299.947 C 135.966 301.377,143.250 307.375,148.326 310.126 C 152.624 312.454,162.215 315.536,165.163 315.536 C 166.250 315.536,165.008 315.163,161.339 314.385 C 154.532 312.944,147.822 309.893,142.543 305.839 C 139.341 303.380,136.607 300.699,136.797 300.205 C 136.896 299.947,136.752 299.742,136.470 299.742 C 136.193 299.742,135.966 299.835,135.966 299.947 M112.275 303.541 C 111.616 303.769,111.736 303.798,112.790 303.663 C 114.359 303.463,114.549 303.626,119.149 309.141 C 126.768 318.273,135.549 324.738,146.178 329.039 C 148.676 330.050,152.116 331.088,152.314 330.891 C 152.389 330.815,151.793 330.559,150.989 330.321 C 138.862 326.729,127.310 318.671,118.470 307.639 C 114.927 303.218,114.338 302.828,112.275 303.541 M232.227 310.999 C 226.581 315.182,224.199 316.741,218.297 320.118 C 213.663 322.769,204.854 326.758,200.343 328.247 C 199.021 328.684,198.110 329.098,198.317 329.167 C 199.830 329.673,213.537 323.445,221.631 318.575 C 225.824 316.052,228.146 314.488,234.180 310.129 C 235.552 309.137,236.784 308.326,236.917 308.326 C 237.051 308.326,237.238 311.069,237.332 314.421 C 237.605 324.154,239.562 328.389,244.120 329.111 L 245.322 329.302 244.037 328.813 C 238.824 326.827,237.884 323.988,237.623 309.442 C 237.585 307.317,236.950 307.501,232.227 310.999 M305.923 308.654 C 306.206 308.846,306.734 309.005,307.096 309.008 C 307.974 309.015,307.700 308.818,306.438 308.536 C 305.686 308.367,305.547 308.399,305.923 308.654 M81.545 310.730 C 81.112 310.916,81.049 311.025,81.373 311.025 C 81.657 311.025,82.197 310.892,82.575 310.730 C 83.008 310.544,83.071 310.435,82.747 310.435 C 82.464 310.435,81.923 310.567,81.545 310.730 M314.678 310.730 C 315.056 310.892,315.597 311.025,315.880 311.025 C 316.204 311.025,316.141 310.916,315.708 310.730 C 315.330 310.567,314.790 310.435,314.506 310.435 C 314.182 310.435,314.245 310.544,314.678 310.730 M321.545 312.446 C 321.923 312.609,322.464 312.741,322.747 312.741 C 323.071 312.741,323.008 312.632,322.575 312.446 C 322.197 312.284,321.657 312.151,321.373 312.151 C 321.049 312.151,321.112 312.260,321.545 312.446 M184.893 314.353 C 183.571 314.611,181.971 314.915,181.338 315.030 C 180.705 315.144,180.251 315.301,180.328 315.379 C 180.517 315.567,187.061 314.514,187.960 314.150 C 189.070 313.701,187.808 313.784,184.893 314.353 M167.382 315.896 C 168.326 316.043,170.798 316.163,172.876 316.163 C 174.953 316.163,177.425 316.043,178.369 315.896 C 179.484 315.722,177.558 315.628,172.876 315.628 C 168.193 315.628,166.267 315.722,167.382 315.896 M13.734 328.069 C 14.375 328.730,14.976 329.270,15.070 329.270 C 15.165 329.270,14.718 328.730,14.077 328.069 C 13.437 327.408,12.835 326.867,12.741 326.867 C 12.646 326.867,13.093 327.408,13.734 328.069 M194.515 330.001 C 193.198 330.377,192.039 330.766,191.940 330.866 C 191.630 331.179,194.424 330.569,196.223 329.930 C 198.530 329.111,197.487 329.155,194.515 330.001 M153.133 331.310 C 153.740 331.665,158.665 332.715,159.556 332.679 C 160.130 332.656,153.716 331.041,152.961 331.018 C 152.773 331.013,152.850 331.144,153.133 331.310 M188.326 331.532 C 187.004 331.788,185.405 332.089,184.772 332.201 C 184.139 332.313,183.696 332.480,183.788 332.572 C 183.996 332.780,189.930 331.766,190.985 331.342 C 192.041 330.918,191.189 330.978,188.326 331.532 M161.717 333.140 C 162.953 333.739,181.528 333.734,182.489 333.134 C 183.072 332.770,182.941 332.744,181.631 332.962 C 179.655 333.291,165.235 333.298,162.747 332.971 C 161.132 332.759,160.983 332.784,161.717 333.140 " stroke="none" fill="#e19ba6" fill-rule="evenodd"></path><path id="path4" d="M20.000 80.237 C 20.330 80.323,20.871 80.323,21.202 80.237 C 21.532 80.150,21.262 80.080,20.601 80.080 C 19.940 80.080,19.670 80.150,20.000 80.237 M377.597 80.242 C 378.021 80.324,378.717 80.324,379.142 80.242 C 379.567 80.160,379.219 80.094,378.369 80.094 C 377.519 80.094,377.172 80.160,377.597 80.242 M16.910 80.697 C 15.817 81.137,15.948 81.397,17.082 81.039 C 19.018 80.427,19.076 80.398,18.369 80.392 C 17.991 80.389,17.335 80.527,16.910 80.697 M23.519 80.851 C 24.464 81.105,25.283 81.267,25.339 81.211 C 25.529 81.025,23.256 80.343,22.524 80.367 C 22.127 80.379,22.575 80.597,23.519 80.851 M372.953 81.101 C 371.957 81.494,371.203 81.876,371.278 81.950 C 371.352 82.024,372.173 81.786,373.103 81.419 C 374.032 81.053,375.172 80.682,375.636 80.595 L 376.481 80.437 375.622 80.412 C 375.150 80.399,373.949 80.709,372.953 81.101 M381.595 80.882 C 382.330 81.151,383.171 81.565,383.463 81.802 C 383.897 82.152,383.943 82.146,383.715 81.768 C 383.410 81.260,381.402 80.329,380.698 80.368 C 380.456 80.381,380.859 80.612,381.595 80.882 M13.950 82.430 C 13.451 82.822,12.881 83.479,12.682 83.889 C 12.336 84.607,12.348 84.605,13.011 83.846 C 13.390 83.411,14.055 82.760,14.489 82.398 C 15.559 81.507,15.088 81.535,13.950 82.430 M28.326 82.536 C 28.893 82.794,29.742 83.100,30.215 83.216 C 30.904 83.385,30.870 83.334,30.043 82.957 C 29.476 82.699,28.627 82.394,28.155 82.278 C 27.465 82.109,27.499 82.159,28.326 82.536 M368.927 82.771 C 368.172 83.135,367.940 83.336,368.412 83.218 C 369.384 82.976,371.169 82.081,370.644 82.099 C 370.455 82.106,369.682 82.408,368.927 82.771 M384.206 82.230 C 384.206 82.346,384.690 82.934,385.281 83.538 L 386.356 84.635 385.608 83.530 C 384.869 82.437,384.206 81.822,384.206 82.230 M364.706 84.351 C 363.518 84.837,362.602 85.292,362.672 85.362 C 362.808 85.497,367.021 83.909,367.320 83.610 C 367.686 83.244,366.797 83.496,364.706 84.351 M33.133 84.253 C 33.700 84.511,34.549 84.817,35.021 84.933 C 35.711 85.102,35.677 85.051,34.850 84.674 C 34.283 84.416,33.433 84.110,32.961 83.994 C 32.272 83.825,32.306 83.876,33.133 84.253 M386.651 85.845 C 387.171 87.382,387.464 87.681,387.148 86.352 C 387.014 85.785,386.756 85.171,386.576 84.986 C 386.395 84.802,386.429 85.188,386.651 85.845 M38.112 86.180 C 38.961 86.537,39.888 86.830,40.172 86.832 C 40.455 86.833,39.914 86.533,38.970 86.164 C 36.776 85.308,36.064 85.321,38.112 86.180 M360.563 85.887 C 359.929 86.070,359.474 86.284,359.552 86.362 C 359.726 86.536,362.232 85.869,362.232 85.649 C 362.232 85.447,361.959 85.486,360.563 85.887 M11.166 87.983 C 10.716 91.160,11.136 323.569,11.593 324.292 C 11.980 324.904,11.998 324.867,11.764 323.948 C 11.620 323.382,11.502 269.730,11.502 204.721 C 11.502 139.712,11.473 86.524,11.437 86.524 C 11.402 86.524,11.280 87.180,11.166 87.983 M354.850 87.926 C 353.906 88.291,353.580 88.502,354.125 88.396 C 355.205 88.186,357.467 87.267,356.910 87.265 C 356.721 87.264,355.794 87.562,354.850 87.926 M42.918 87.846 C 43.202 88.012,43.897 88.248,44.464 88.370 C 45.123 88.513,45.308 88.484,44.979 88.291 C 44.695 88.125,44.000 87.889,43.433 87.767 C 42.774 87.624,42.589 87.653,42.918 87.846 M387.466 205.322 C 387.466 270.189,387.505 296.725,387.554 264.292 C 387.602 231.858,387.602 178.785,387.554 146.352 C 387.505 113.918,387.466 140.455,387.466 205.322 M47.554 89.403 C 48.120 89.661,48.970 89.967,49.442 90.083 C 50.131 90.252,50.098 90.201,49.270 89.824 C 48.704 89.566,47.854 89.261,47.382 89.145 C 46.693 88.976,46.726 89.026,47.554 89.403 M349.936 89.505 C 349.121 89.793,348.516 90.089,348.590 90.164 C 348.746 90.320,351.931 89.275,351.931 89.066 C 351.931 88.851,351.541 88.937,349.936 89.505 M52.361 91.120 C 52.927 91.378,53.777 91.684,54.249 91.800 C 54.938 91.969,54.905 91.918,54.077 91.541 C 53.511 91.283,52.661 90.977,52.189 90.861 C 51.499 90.692,51.533 90.743,52.361 91.120 M345.064 91.330 C 344.215 91.687,343.751 91.976,344.034 91.973 C 344.611 91.965,347.491 90.698,346.953 90.688 C 346.764 90.685,345.914 90.974,345.064 91.330 M57.854 93.047 C 58.798 93.396,59.803 93.681,60.086 93.681 C 60.369 93.681,59.828 93.396,58.884 93.047 C 57.940 92.699,56.936 92.414,56.652 92.414 C 56.369 92.414,56.910 92.699,57.854 93.047 M339.105 93.264 C 338.188 93.545,337.499 93.836,337.573 93.910 C 337.735 94.072,341.288 93.058,341.288 92.850 C 341.288 92.634,340.945 92.699,339.105 93.264 M334.421 94.787 C 333.147 95.220,332.923 95.363,333.734 95.228 C 334.910 95.031,337.331 94.128,336.652 94.139 C 336.464 94.142,335.459 94.433,334.421 94.787 M63.863 94.936 C 64.524 95.190,65.296 95.398,65.579 95.398 C 65.863 95.398,65.554 95.190,64.893 94.936 C 64.232 94.681,63.459 94.473,63.176 94.473 C 62.893 94.473,63.202 94.681,63.863 94.936 M68.841 96.481 C 69.785 96.829,70.790 97.114,71.073 97.114 C 71.356 97.114,70.815 96.829,69.871 96.481 C 68.927 96.132,67.923 95.847,67.639 95.847 C 67.356 95.847,67.897 96.132,68.841 96.481 M328.927 96.466 C 327.888 96.813,327.169 97.113,327.329 97.132 C 327.748 97.183,331.330 96.117,331.330 95.941 C 331.330 95.709,330.944 95.793,328.927 96.466 M74.506 98.177 C 74.790 98.342,75.639 98.571,76.395 98.686 L 77.768 98.893 76.223 98.379 C 74.507 97.808,73.718 97.715,74.506 98.177 M322.575 98.382 C 321.221 98.850,321.219 98.854,322.403 98.654 C 323.804 98.418,325.236 97.895,324.464 97.902 C 324.180 97.905,323.330 98.121,322.575 98.382 M80.391 99.733 C 80.632 99.974,85.573 100.979,85.733 100.820 C 85.808 100.744,84.762 100.433,83.408 100.127 C 80.862 99.552,80.112 99.454,80.391 99.733 M315.536 100.258 C 314.846 100.478,314.813 100.534,315.365 100.543 C 315.742 100.548,316.361 100.420,316.738 100.258 C 317.613 99.882,316.710 99.882,315.536 100.258 M86.524 101.088 C 86.524 101.168,87.567 101.463,88.841 101.744 C 92.688 102.594,93.571 102.750,93.382 102.549 C 93.085 102.234,86.524 100.836,86.524 101.088 M308.155 102.152 L 306.781 102.620 308.155 102.420 C 308.910 102.310,309.837 102.097,310.215 101.947 L 310.901 101.674 310.215 101.679 C 309.837 101.682,308.910 101.894,308.155 102.152 M29.413 102.890 C 29.112 103.191,29.184 306.190,29.486 307.271 C 29.614 307.729,29.946 308.165,30.224 308.241 C 30.657 308.359,30.655 308.327,30.215 308.022 C 29.353 307.424,29.265 103.123,30.127 102.898 C 30.607 102.773,30.619 102.733,30.186 102.701 C 29.887 102.679,29.539 102.764,29.413 102.890 M303.249 103.259 C 301.873 103.545,300.815 103.848,300.898 103.931 C 301.098 104.131,305.263 103.331,305.923 102.967 C 306.593 102.596,306.255 102.633,303.249 103.259 M368.499 102.898 C 369.071 103.047,369.097 108.115,369.014 205.658 C 368.966 262.089,369.043 308.189,369.185 308.101 C 369.326 308.014,369.442 261.754,369.442 205.302 L 369.442 102.661 368.670 102.701 C 368.086 102.731,368.045 102.779,368.499 102.898 M31.760 103.480 C 32.326 103.738,33.176 104.044,33.648 104.160 C 34.337 104.329,34.304 104.278,33.476 103.902 C 32.910 103.644,32.060 103.338,31.588 103.222 C 30.899 103.053,30.932 103.104,31.760 103.480 M96.652 103.527 C 97.597 103.770,98.678 103.965,99.056 103.961 C 99.433 103.956,98.970 103.754,98.026 103.511 C 97.082 103.269,96.000 103.074,95.622 103.078 C 95.245 103.082,95.708 103.284,96.652 103.527 M365.150 103.875 C 364.292 104.288,364.263 104.336,364.979 104.161 C 365.951 103.923,367.045 103.366,366.524 103.374 C 366.335 103.376,365.717 103.602,365.150 103.875 M34.708 104.508 C 34.974 104.793,39.842 106.445,40.318 106.412 C 40.521 106.398,39.657 106.026,38.398 105.586 C 35.236 104.480,34.474 104.258,34.708 104.508 M103.691 105.027 C 103.974 105.201,104.979 105.430,105.923 105.538 C 107.589 105.728,107.599 105.724,106.266 105.401 C 103.634 104.762,103.142 104.691,103.691 105.027 M293.978 105.319 C 292.602 105.605,291.547 105.911,291.634 105.998 C 291.810 106.174,297.025 105.150,297.287 104.887 C 297.535 104.639,296.752 104.741,293.978 105.319 M359.142 105.923 C 357.914 106.365,357.073 106.740,357.272 106.754 C 357.732 106.788,361.888 105.393,361.888 105.205 C 361.888 104.973,361.477 105.081,359.142 105.923 M42.060 106.980 C 44.410 107.897,56.410 111.612,56.698 111.511 C 56.849 111.459,53.554 110.335,49.377 109.013 C 41.803 106.616,39.457 105.964,42.060 106.980 M112.961 106.952 C 114.000 107.217,115.468 107.512,116.223 107.607 C 117.284 107.740,117.167 107.670,115.708 107.297 C 114.670 107.032,113.202 106.737,112.446 106.642 C 111.385 106.509,111.502 106.579,112.961 106.952 M284.807 106.953 C 284.618 107.018,283.715 107.171,282.801 107.295 C 281.887 107.418,281.201 107.582,281.278 107.659 C 281.355 107.735,282.875 107.586,284.657 107.326 C 286.439 107.067,287.279 106.850,286.524 106.845 C 285.768 106.840,284.996 106.888,284.807 106.953 M354.506 107.497 C 353.562 107.861,353.236 108.073,353.782 107.967 C 354.862 107.757,357.124 106.838,356.567 106.836 C 356.378 106.835,355.451 107.133,354.506 107.497 M119.845 108.265 C 120.111 108.560,126.306 109.601,126.802 109.434 C 127.026 109.358,126.052 109.122,124.635 108.909 C 123.219 108.696,121.519 108.417,120.858 108.289 C 120.197 108.161,119.741 108.150,119.845 108.265 M274.749 108.756 C 272.993 109.038,271.626 109.337,271.711 109.422 C 271.910 109.621,277.387 108.829,278.283 108.472 C 279.223 108.097,278.493 108.156,274.749 108.756 M349.013 109.185 C 347.502 109.721,346.442 110.173,346.656 110.188 C 347.053 110.215,352.328 108.523,352.589 108.285 C 352.979 107.930,351.483 108.307,349.013 109.185 M129.131 110.018 C 129.338 110.225,136.857 111.254,137.780 111.202 C 138.198 111.179,136.687 110.883,134.421 110.544 C 130.075 109.895,128.891 109.778,129.131 110.018 M264.789 110.463 C 263.032 110.747,261.667 111.052,261.756 111.140 C 261.934 111.319,268.905 110.266,269.147 110.024 C 269.382 109.788,268.266 109.901,264.789 110.463 M341.116 111.566 C 336.482 113.006,335.494 113.378,336.996 113.119 C 338.374 112.881,346.407 110.279,345.751 110.283 C 345.468 110.284,343.382 110.862,341.116 111.566 M57.339 111.673 C 57.607 111.958,64.261 113.708,64.430 113.539 C 64.512 113.456,63.376 113.068,61.904 112.677 C 58.223 111.699,57.138 111.460,57.339 111.673 M142.489 111.948 C 143.150 112.108,145.004 112.318,146.609 112.417 L 149.528 112.595 145.923 112.114 C 141.875 111.574,140.706 111.518,142.489 111.948 M254.592 112.126 C 252.893 112.368,250.884 112.589,250.129 112.619 C 249.373 112.648,248.965 112.756,249.220 112.857 C 249.764 113.074,256.721 112.349,258.109 111.932 C 259.431 111.534,258.319 111.595,254.592 112.126 M64.898 113.750 C 65.157 114.036,77.616 117.520,77.783 117.353 C 77.861 117.275,75.340 116.474,72.181 115.572 C 65.840 113.761,64.635 113.460,64.898 113.750 M330.815 114.509 C 329.305 114.937,324.592 116.214,320.343 117.346 C 313.237 119.239,309.673 120.093,297.167 122.898 C 294.712 123.449,292.968 123.910,293.291 123.924 C 293.842 123.947,298.010 123.069,307.296 120.975 C 313.565 119.562,334.052 114.131,334.390 113.793 C 334.671 113.512,333.532 113.740,330.815 114.509 M174.421 115.413 C 174.421 116.131,211.298 116.407,218.712 115.744 C 221.829 115.465,221.527 115.449,216.481 115.625 C 208.920 115.889,184.053 115.771,178.627 115.445 C 176.313 115.306,174.421 115.291,174.421 115.413 M78.312 117.568 C 78.560 117.815,84.193 119.183,84.344 119.033 C 84.423 118.953,83.174 118.559,81.570 118.157 C 78.600 117.412,78.057 117.314,78.312 117.568 M86.009 119.666 C 86.764 119.915,87.691 120.117,88.069 120.115 C 88.446 120.112,87.983 119.895,87.039 119.633 C 84.890 119.035,84.165 119.059,86.009 119.666 M91.845 120.990 C 96.880 122.312,102.987 123.668,103.355 123.545 C 103.544 123.483,100.722 122.749,97.085 121.916 C 89.580 120.197,87.276 119.790,91.845 120.990 M105.059 123.935 C 106.811 124.379,109.621 124.695,108.431 124.314 C 107.923 124.151,106.687 123.931,105.685 123.825 C 104.211 123.669,104.091 123.690,105.059 123.935 M284.136 125.359 C 280.375 126.062,279.137 126.437,281.545 126.144 C 283.882 125.860,289.392 124.715,288.412 124.718 C 287.940 124.719,286.016 125.008,284.136 125.359 M111.273 125.101 C 111.435 125.240,119.009 126.586,127.210 127.932 C 130.232 128.427,133.129 129.051,133.648 129.318 C 134.167 129.585,134.592 129.682,134.592 129.535 C 134.592 128.976,132.526 128.434,127.039 127.551 C 123.923 127.050,119.302 126.266,116.771 125.809 C 112.367 125.014,110.961 124.833,111.273 125.101 M276.223 126.783 C 266.744 128.358,262.951 129.047,263.631 129.071 C 264.390 129.097,272.420 127.837,277.597 126.879 C 280.404 126.359,279.254 126.279,276.223 126.783 M257.167 129.626 C 255.562 129.878,253.438 130.132,252.446 130.190 C 251.455 130.249,250.644 130.406,250.644 130.540 C 250.644 130.818,252.439 130.644,258.541 129.777 C 260.901 129.441,262.215 129.167,261.459 129.167 C 260.704 129.167,258.773 129.373,257.167 129.626 M157.258 131.603 C 157.835 132.241,177.566 133.633,184.378 133.515 C 187.994 133.453,185.175 133.243,175.794 132.876 C 170.601 132.673,165.193 132.367,163.777 132.196 C 158.009 131.499,157.089 131.415,157.258 131.603 M229.700 132.532 L 227.811 132.764 229.528 132.814 C 230.472 132.842,231.476 132.715,231.760 132.532 C 232.043 132.349,232.120 132.222,231.931 132.250 C 231.742 132.278,230.738 132.405,229.700 132.532 M221.459 133.133 C 221.458 133.275,222.424 133.348,223.605 133.295 C 227.480 133.122,227.864 132.986,224.635 132.930 C 222.888 132.900,221.459 132.991,221.459 133.133 M190.043 133.806 C 199.526 134.048,207.990 134.055,207.844 133.820 C 207.757 133.678,202.866 133.595,196.975 133.636 C 191.085 133.676,187.966 133.752,190.043 133.806 M192.727 276.995 C 196.658 277.051,202.993 277.050,206.804 276.995 C 210.615 276.940,207.399 276.895,199.657 276.895 C 191.914 276.895,188.796 276.940,192.727 276.995 M174.115 277.464 C 171.020 277.617,168.316 277.820,168.106 277.913 C 167.681 278.103,175.983 277.810,181.803 277.429 C 185.507 277.187,185.523 277.183,182.661 277.183 C 181.056 277.184,177.210 277.310,174.115 277.464 M217.854 277.420 C 223.430 277.819,232.033 278.082,229.356 277.772 C 228.129 277.630,224.189 277.432,220.601 277.332 C 215.843 277.200,215.100 277.223,217.854 277.420 M164.725 278.354 C 165.152 278.437,165.770 278.433,166.098 278.347 C 166.427 278.262,166.077 278.194,165.322 278.198 C 164.567 278.202,164.298 278.272,164.725 278.354 M233.567 278.358 C 234.089 278.437,234.861 278.435,235.284 278.353 C 235.706 278.272,235.279 278.207,234.335 278.210 C 233.391 278.212,233.045 278.279,233.567 278.358 M160.777 278.701 C 161.299 278.780,162.072 278.778,162.494 278.697 C 162.916 278.615,162.489 278.551,161.545 278.553 C 160.601 278.556,160.255 278.622,160.777 278.701 M237.511 278.697 C 237.936 278.779,238.631 278.779,239.056 278.697 C 239.481 278.615,239.133 278.548,238.283 278.548 C 237.433 278.548,237.086 278.615,237.511 278.697 M152.961 279.309 C 151.262 279.540,150.412 279.737,151.073 279.746 C 151.734 279.756,153.897 279.568,155.880 279.329 C 158.149 279.055,158.849 278.893,157.768 278.891 C 156.824 278.890,154.661 279.078,152.961 279.309 M147.558 280.071 C 147.985 280.153,148.603 280.150,148.931 280.064 C 149.259 279.978,148.910 279.911,148.155 279.915 C 147.399 279.919,147.131 279.989,147.558 280.071 M144.120 280.414 C 144.545 280.496,145.240 280.496,145.665 280.414 C 146.090 280.332,145.742 280.265,144.893 280.265 C 144.043 280.265,143.695 280.332,144.120 280.414 M138.391 280.905 C 136.519 281.215,135.622 281.571,136.853 281.515 C 138.752 281.428,143.238 280.594,141.803 280.595 C 140.953 280.595,139.418 280.735,138.391 280.905 M127.404 282.622 C 126.378 282.792,125.451 283.020,125.344 283.129 C 125.147 283.329,127.462 283.049,129.957 282.570 C 131.999 282.179,129.810 282.223,127.404 282.622 M269.185 282.768 C 270.601 283.016,272.223 283.210,272.790 283.199 C 273.356 283.188,272.584 282.978,271.073 282.731 C 269.562 282.485,267.940 282.291,267.468 282.301 C 266.996 282.310,267.768 282.521,269.185 282.768 M277.940 284.105 C 278.492 284.367,285.062 285.353,285.218 285.197 C 285.382 285.033,281.821 284.385,279.313 284.122 C 278.369 284.023,277.751 284.016,277.940 284.105 M289.270 286.188 C 290.215 286.431,291.373 286.628,291.845 286.627 C 292.318 286.626,291.777 286.416,290.644 286.160 C 288.048 285.574,286.968 285.596,289.270 286.188 M101.116 287.543 C 100.927 287.601,99.872 287.835,98.772 288.061 C 97.671 288.288,96.837 288.539,96.918 288.620 C 97.084 288.787,102.019 287.795,102.270 287.544 C 102.445 287.369,101.678 287.368,101.116 287.543 M298.369 288.045 C 298.841 288.188,299.845 288.397,300.601 288.510 L 301.974 288.714 300.601 288.246 C 299.845 287.989,298.841 287.780,298.369 287.781 L 297.511 287.784 298.369 288.045 M91.734 289.621 C 89.671 290.124,88.863 290.602,90.669 290.250 C 92.274 289.938,94.713 289.166,94.077 289.171 C 93.794 289.173,92.739 289.375,91.734 289.621 M304.206 289.206 C 304.206 289.446,309.056 290.544,309.252 290.348 C 309.335 290.264,308.584 290.020,307.583 289.805 C 306.582 289.591,305.413 289.327,304.985 289.220 C 304.556 289.112,304.206 289.106,304.206 289.206 M311.440 290.933 C 311.703 291.224,316.922 292.291,317.119 292.095 C 317.204 292.009,316.304 291.752,315.118 291.524 C 313.932 291.296,312.575 291.022,312.103 290.914 C 311.631 290.807,311.332 290.815,311.440 290.933 M83.825 291.553 C 83.191 291.735,82.732 291.946,82.807 292.020 C 82.881 292.094,83.709 291.945,84.647 291.688 C 85.585 291.431,86.043 291.220,85.665 291.220 C 85.288 291.221,84.459 291.370,83.825 291.553 M78.627 293.242 C 77.353 293.675,77.129 293.818,77.940 293.682 C 79.116 293.486,81.537 292.583,80.858 292.594 C 80.670 292.597,79.665 292.888,78.627 293.242 M319.828 293.008 C 320.395 293.266,321.245 293.572,321.717 293.688 C 322.406 293.857,322.372 293.806,321.545 293.429 C 320.979 293.171,320.129 292.866,319.657 292.750 C 318.967 292.581,319.001 292.632,319.828 293.008 M70.730 295.295 C 69.691 295.659,69.227 295.878,69.700 295.783 C 72.136 295.291,73.820 294.863,73.820 294.735 C 73.820 294.430,72.537 294.662,70.730 295.295 M186.881 294.847 C 188.164 294.913,190.172 294.913,191.345 294.846 C 192.517 294.779,191.468 294.725,189.013 294.726 C 186.558 294.726,185.599 294.781,186.881 294.847 M207.137 294.846 C 208.230 294.915,209.929 294.914,210.914 294.845 C 211.898 294.776,211.004 294.720,208.927 294.721 C 206.850 294.721,206.044 294.778,207.137 294.846 M326.352 295.117 C 327.107 295.366,328.034 295.571,328.412 295.573 C 328.790 295.575,328.403 295.357,327.554 295.090 C 326.704 294.822,325.777 294.617,325.494 294.633 C 325.210 294.650,325.597 294.868,326.352 295.117 M176.824 295.159 C 176.163 295.222,174.155 295.373,172.361 295.495 C 170.567 295.617,169.253 295.771,169.442 295.836 C 169.631 295.902,173.030 295.745,176.996 295.489 C 181.047 295.227,182.852 295.027,181.116 295.034 C 179.416 295.040,177.485 295.097,176.824 295.159 M215.377 295.190 C 216.470 295.258,218.170 295.257,219.154 295.188 C 220.139 295.119,219.245 295.063,217.167 295.064 C 215.090 295.065,214.285 295.121,215.377 295.190 M222.060 295.527 C 222.674 295.604,223.678 295.604,224.292 295.527 C 224.906 295.451,224.403 295.389,223.176 295.389 C 221.948 295.389,221.446 295.451,222.060 295.527 M330.644 296.090 C 330.644 296.316,334.456 297.419,334.631 297.243 C 334.707 297.167,334.111 296.917,333.307 296.685 C 332.503 296.454,331.575 296.187,331.245 296.092 C 330.914 295.997,330.644 295.996,330.644 296.090 M65.751 296.837 C 64.391 297.307,64.390 297.310,65.579 297.114 C 66.240 297.006,67.013 296.785,67.296 296.623 C 68.052 296.193,67.322 296.294,65.751 296.837 M155.708 296.878 C 152.777 297.228,151.708 297.402,151.819 297.512 C 151.886 297.579,153.792 297.433,156.056 297.186 C 158.320 296.940,159.399 296.742,158.455 296.747 C 157.511 296.751,156.275 296.811,155.708 296.878 M336.511 297.801 C 336.791 298.118,341.716 299.772,341.882 299.605 C 341.957 299.531,340.965 299.122,339.679 298.697 C 338.392 298.273,337.107 297.846,336.824 297.749 C 336.541 297.652,336.400 297.676,336.511 297.801 M58.610 298.616 C 57.516 298.903,56.688 299.206,56.771 299.289 C 56.946 299.464,60.743 298.513,61.035 298.221 C 61.307 297.949,60.899 298.016,58.610 298.616 M143.262 298.606 C 143.592 298.692,144.133 298.692,144.464 298.606 C 144.794 298.519,144.524 298.449,143.863 298.449 C 143.202 298.449,142.931 298.519,143.262 298.606 M138.623 299.042 C 137.913 299.180,137.229 299.395,137.103 299.521 C 136.977 299.647,137.326 299.667,137.879 299.566 C 138.432 299.466,139.734 299.250,140.773 299.088 C 142.429 298.829,142.492 298.793,141.288 298.792 C 140.532 298.792,139.333 298.904,138.623 299.042 M256.824 299.028 C 257.296 299.171,258.687 299.378,259.914 299.488 C 261.142 299.597,261.760 299.570,261.288 299.427 C 260.815 299.284,259.425 299.077,258.197 298.967 C 256.970 298.858,256.352 298.885,256.824 299.028 M53.219 300.281 L 52.017 300.767 53.219 300.558 C 54.581 300.323,55.839 299.752,54.936 299.779 C 54.652 299.788,53.880 300.013,53.219 300.281 M342.661 300.027 C 342.944 300.200,343.794 300.436,344.549 300.551 C 346.186 300.802,345.190 300.298,343.348 299.944 C 342.564 299.793,342.325 299.822,342.661 300.027 M267.983 300.792 C 268.738 300.948,269.742 301.067,270.215 301.057 C 270.765 301.044,270.581 300.935,269.700 300.753 C 268.944 300.597,267.940 300.478,267.468 300.488 C 266.917 300.501,267.102 300.610,267.983 300.792 M47.267 302.038 C 46.354 302.317,45.673 302.611,45.753 302.692 C 45.834 302.772,46.812 302.543,47.928 302.183 C 49.044 301.823,49.725 301.528,49.442 301.529 C 49.159 301.530,48.180 301.759,47.267 302.038 M349.356 301.750 C 350.418 302.204,352.198 302.555,351.588 302.190 C 351.305 302.020,350.532 301.786,349.871 301.669 C 349.061 301.525,348.893 301.552,349.356 301.750 M275.577 302.140 C 275.977 302.301,277.058 302.519,277.980 302.624 C 279.606 302.808,279.594 302.799,277.597 302.323 C 275.285 301.773,274.489 301.700,275.577 302.140 M355.536 303.652 C 356.103 303.910,356.953 304.216,357.425 304.332 C 358.114 304.501,358.080 304.450,357.253 304.073 C 356.687 303.815,355.837 303.509,355.365 303.394 C 354.675 303.224,354.709 303.275,355.536 303.652 M108.670 304.027 C 107.725 304.269,107.262 304.471,107.639 304.476 C 108.017 304.480,109.099 304.285,110.043 304.042 C 110.987 303.799,111.451 303.597,111.073 303.593 C 110.695 303.589,109.614 303.784,108.670 304.027 M283.968 303.633 C 284.223 303.915,289.160 304.946,289.349 304.757 C 289.430 304.676,288.596 304.428,287.495 304.207 C 286.394 303.986,285.107 303.719,284.635 303.614 C 284.163 303.509,283.863 303.518,283.968 303.633 M35.880 305.947 C 35.124 306.311,34.893 306.512,35.365 306.395 C 36.657 306.073,38.356 305.292,37.768 305.290 C 37.485 305.288,36.635 305.584,35.880 305.947 M360.858 305.579 C 361.142 305.762,361.605 305.912,361.888 305.912 C 362.346 305.912,362.346 305.875,361.888 305.579 C 361.605 305.396,361.142 305.247,360.858 305.247 C 360.401 305.247,360.401 305.284,360.858 305.579 M99.227 306.094 C 98.378 306.341,97.914 306.554,98.197 306.569 C 98.481 306.584,99.485 306.381,100.429 306.118 C 101.373 305.856,101.837 305.642,101.459 305.644 C 101.082 305.645,100.077 305.848,99.227 306.094 M294.249 305.876 C 295.531 306.299,298.000 306.661,297.167 306.304 C 296.790 306.143,295.785 305.917,294.936 305.802 C 293.919 305.665,293.684 305.690,294.249 305.876 M32.339 307.187 C 31.525 307.475,30.919 307.772,30.993 307.846 C 31.150 308.003,34.335 306.957,34.335 306.749 C 34.335 306.534,33.944 306.620,32.339 307.187 M364.838 306.925 C 365.244 307.299,367.729 308.094,367.914 307.909 C 367.992 307.831,367.262 307.513,366.291 307.202 C 365.320 306.892,364.667 306.767,364.838 306.925 M91.729 307.703 C 90.909 307.886,90.307 308.104,90.391 308.188 C 90.568 308.365,94.077 307.653,94.077 307.439 C 94.077 307.244,93.486 307.310,91.729 307.703 M302.146 307.593 C 303.428 308.015,305.897 308.377,305.064 308.021 C 304.687 307.859,303.682 307.633,302.833 307.519 C 301.816 307.382,301.581 307.407,302.146 307.593 M86.352 309.197 C 84.998 309.666,84.996 309.670,86.180 309.470 C 87.581 309.234,89.013 308.711,88.240 308.718 C 87.957 308.720,87.107 308.936,86.352 309.197 M309.528 309.318 C 309.906 309.480,310.910 309.706,311.760 309.820 C 312.776 309.957,313.011 309.932,312.446 309.746 C 311.164 309.324,308.696 308.962,309.528 309.318 M79.313 311.073 C 78.623 311.294,78.590 311.350,79.142 311.358 C 79.519 311.364,80.137 311.235,80.515 311.073 C 81.390 310.697,80.487 310.697,79.313 311.073 M318.283 311.416 C 319.457 311.792,320.360 311.792,319.485 311.416 C 319.107 311.254,318.489 311.126,318.112 311.131 C 317.560 311.139,317.593 311.195,318.283 311.416 M72.446 312.961 C 71.785 313.216,71.476 313.424,71.760 313.424 C 72.043 313.424,72.815 313.216,73.476 312.961 C 74.137 312.707,74.446 312.499,74.163 312.499 C 73.880 312.499,73.107 312.707,72.446 312.961 M324.120 312.961 C 324.781 313.216,325.554 313.424,325.837 313.424 C 326.120 313.424,325.811 313.216,325.150 312.961 C 324.489 312.707,323.717 312.499,323.433 312.499 C 323.150 312.499,323.459 312.707,324.120 312.961 M329.957 314.678 C 330.618 314.933,331.391 315.141,331.674 315.141 C 331.957 315.141,331.648 314.933,330.987 314.678 C 330.326 314.424,329.554 314.215,329.270 314.215 C 328.987 314.215,329.296 314.424,329.957 314.678 M65.751 315.009 C 64.425 315.616,65.042 315.625,66.609 315.021 C 67.270 314.767,67.579 314.554,67.296 314.548 C 67.013 314.542,66.318 314.750,65.751 315.009 M61.116 316.395 C 60.455 316.649,60.146 316.858,60.429 316.858 C 60.712 316.858,61.485 316.649,62.146 316.395 C 62.807 316.140,63.116 315.932,62.833 315.932 C 62.549 315.932,61.777 316.140,61.116 316.395 M335.451 316.395 C 336.112 316.649,336.884 316.858,337.167 316.858 C 337.451 316.858,337.142 316.649,336.481 316.395 C 335.820 316.140,335.047 315.932,334.764 315.932 C 334.481 315.932,334.790 316.140,335.451 316.395 M55.794 318.099 C 54.468 318.706,55.085 318.715,56.652 318.112 C 57.313 317.857,57.622 317.644,57.339 317.638 C 57.056 317.632,56.361 317.840,55.794 318.099 M340.258 317.889 C 340.541 318.055,341.236 318.291,341.803 318.413 C 342.462 318.556,342.647 318.527,342.318 318.334 C 342.034 318.168,341.339 317.932,340.773 317.810 C 340.113 317.667,339.928 317.696,340.258 317.889 M50.193 319.891 C 49.379 320.179,48.773 320.476,48.847 320.550 C 49.004 320.706,52.189 319.661,52.189 319.453 C 52.189 319.238,51.798 319.324,50.193 319.891 M346.094 319.828 C 347.662 320.432,348.279 320.423,346.953 319.816 C 346.386 319.557,345.691 319.349,345.408 319.355 C 345.124 319.361,345.433 319.574,346.094 319.828 M45.043 321.608 C 44.229 321.896,43.623 322.192,43.697 322.267 C 43.854 322.423,47.039 321.378,47.039 321.169 C 47.039 320.954,46.648 321.040,45.043 321.608 M350.558 321.315 C 350.841 321.490,351.459 321.737,351.931 321.863 C 352.528 322.023,352.633 321.996,352.275 321.775 C 351.991 321.600,351.373 321.353,350.901 321.227 C 350.305 321.067,350.200 321.094,350.558 321.315 M356.738 323.605 C 358.306 324.209,358.923 324.200,357.597 323.593 C 357.030 323.333,356.335 323.126,356.052 323.132 C 355.768 323.138,356.077 323.351,356.738 323.605 M386.505 324.983 C 386.191 325.641,386.005 326.180,386.091 326.180 C 386.326 326.180,387.368 324.078,387.211 323.921 C 387.137 323.846,386.819 324.324,386.505 324.983 M35.193 324.991 C 34.335 325.404,34.306 325.452,35.021 325.277 C 35.994 325.039,37.088 324.482,36.567 324.489 C 36.378 324.492,35.760 324.718,35.193 324.991 M360.172 324.749 C 360.455 324.924,361.073 325.170,361.545 325.297 C 362.142 325.456,362.246 325.429,361.888 325.208 C 361.605 325.033,360.987 324.787,360.515 324.660 C 359.918 324.501,359.814 324.528,360.172 324.749 M12.017 325.393 C 12.017 325.611,12.751 326.543,13.648 327.464 C 14.545 328.384,14.800 328.588,14.214 327.917 C 13.629 327.245,12.895 326.313,12.583 325.846 C 12.272 325.379,12.017 325.176,12.017 325.393 M30.901 326.695 C 30.429 326.965,30.197 327.186,30.386 327.186 C 30.575 327.186,31.116 326.965,31.588 326.695 C 32.060 326.425,32.292 326.205,32.103 326.205 C 31.914 326.205,31.373 326.425,30.901 326.695 M364.979 326.466 C 365.262 326.641,365.880 326.887,366.352 327.013 C 366.948 327.173,367.053 327.146,366.695 326.925 C 366.412 326.750,365.794 326.503,365.322 326.377 C 364.725 326.217,364.621 326.245,364.979 326.466 M384.721 327.478 C 384.154 327.992,383.227 328.771,382.660 329.209 L 381.631 330.006 382.757 329.386 C 383.376 329.046,384.372 328.262,384.970 327.645 C 386.287 326.287,386.141 326.190,384.721 327.478 M25.923 328.767 C 25.064 329.181,25.036 329.229,25.751 329.054 C 26.724 328.816,27.818 328.259,27.296 328.266 C 27.107 328.269,26.489 328.495,25.923 328.767 M16.262 329.747 C 17.064 330.392,20.045 330.737,21.631 330.368 C 22.575 330.148,22.244 330.090,20.086 330.095 C 18.539 330.098,16.964 329.911,16.481 329.667 C 15.695 329.269,15.677 329.276,16.262 329.747 M375.344 330.352 C 376.400 330.649,380.106 330.656,380.843 330.362 C 381.166 330.234,379.881 330.129,377.990 330.129 C 376.098 330.129,374.907 330.229,375.344 330.352 " stroke="none" fill="#7f7f7f" fill-rule="evenodd"></path></g></svg>